<?xml version="1.0" encoding="utf-8"?>
<!-- Generator: Adobe Illustrator 26.0.3, SVG Export Plug-In . SVG Version: 6.00 Build 0)  -->
<svg version="1.1" id="Layer_1" xmlns="http://www.w3.org/2000/svg" xmlns:xlink="http://www.w3.org/1999/xlink" x="0px" y="0px"
	 viewBox="0 0 1024 768" style="enable-background:new 0 0 1024 768;" xml:space="preserve">
<style type="text/css">
	.st0{fill:#EF0000;}
	.st1{fill:none;stroke:#000000;stroke-width:2;stroke-miterlimit:10;}
</style>
<g>
	<g>
		<path class="st0" d="M507.25,380.78c-1.01,0-2.02,0.22-3.01,0.66c-1.12,0.49-1.65,1.52-1.87,2.72c-0.15,0.81,0.06,1.22,0.91,1.22
			c0.03,0,0.06,0,0.09,0c0.51-0.02,1.01-0.02,1.52-0.02c0.76,0,1.52,0.01,2.29,0.01c0.67,0,1.35,0,2.02,0c0.39,0,0.78,0,1.17,0
			c1.89,0,2.31-0.65,1.39-2.35c-0.32-0.59-0.81-1.22-1.38-1.5C509.34,381.02,508.3,380.78,507.25,380.78L507.25,380.78z
			 M502.89,384.76c0.13-2.09,1.44-3.37,3.3-3.37c0.1,0,0.21,0,0.31,0.01c0.25,0.02,0.5,0.03,0.75,0.03c0.24,0,0.48-0.01,0.72-0.03
			c0.11-0.01,0.21-0.01,0.32-0.01c1.88,0,3.22,1.3,3.3,3.37C508.71,384.76,505.83,384.76,502.89,384.76L502.89,384.76z"/>
	</g>
	<g>
		<path class="st0" d="M507.24,374.94c0,0-0.01,0-0.01,0c-1.56,0.01-2.79,1.26-2.79,2.83c0.01,1.54,1.27,2.79,2.79,2.79
			c0.01,0,0.02,0,0.04,0c1.54-0.02,2.82-1.31,2.8-2.83C510.04,376.18,508.78,374.94,507.24,374.94L507.24,374.94z M507.23,380.04
			c-1.24,0-2.26-0.98-2.3-2.22c-0.04-1.29,1-2.37,2.3-2.38c0.01,0,0.01,0,0.02,0c1.23,0,2.27,1,2.32,2.23
			c0.05,1.28-1,2.36-2.31,2.37C507.25,380.04,507.24,380.04,507.23,380.04L507.23,380.04z"/>
	</g>
</g>
<g>
	<path d="M507.38,372.68c4.92,0,8.92,4,8.92,8.92s-4,8.92-8.92,8.92c-4.92,0-8.92-4-8.92-8.92S502.46,372.68,507.38,372.68
		 M507.38,370.68c-6.03,0-10.92,4.89-10.92,10.92s4.89,10.92,10.92,10.92s10.92-4.89,10.92-10.92S513.41,370.68,507.38,370.68
		L507.38,370.68z"/>
</g>
<path class="st1" d="M523.71,397.07l-10.13-7.22c-0.61-0.44-0.76-1.29-0.32-1.91l0.67-0.94c0.44-0.61,1.29-0.76,1.91-0.32
	l10.13,7.22c0.61,0.44,0.76,1.29,0.32,1.91l-0.67,0.94C525.18,397.36,524.33,397.5,523.71,397.07z"/>
</svg>
