<?xml version="1.0" encoding="utf-8"?>
<!-- Generator: Adobe Illustrator 26.0.3, SVG Export Plug-In . SVG Version: 6.00 Build 0)  -->
<svg version="1.1" id="Layer_1" xmlns="http://www.w3.org/2000/svg" xmlns:xlink="http://www.w3.org/1999/xlink" x="0px" y="0px"
	 viewBox="0 0 1024 768" style="enable-background:new 0 0 1024 768;" xml:space="preserve">
<style type="text/css">
	.st0{fill:#EF0000;}
</style>
<g>
	<path d="M525.85,382.12c-0.21,0.1-0.4,0.18-0.59,0.27c-4.02,2.02-8.04,4.03-12.04,6.08c-0.92,0.47-1.72,0.45-2.64-0.01
		c-4.56-2.33-9.14-4.63-13.72-6.93c-0.5-0.25-0.98-0.56-0.89-1.14c0.06-0.39,0.35-0.89,0.68-1.07c4.77-2.45,9.57-4.85,14.36-7.26
		c0.6-0.3,1.21-0.31,1.81,0c4.79,2.41,9.58,4.82,14.37,7.24c0.86,0.44,0.94,1.3,0.25,1.98c-0.14,0.14-0.26,0.39-0.26,0.59
		c-0.02,1.93-0.02,3.86-0.01,5.79c0,0.18,0.04,0.43,0.15,0.52c0.55,0.43,0.63,0.99,0.62,1.63c-0.02,0.82,0,1.65-0.01,2.47
		c0,0.76-0.17,0.94-0.9,0.94c-1.97,0.01-1.84,0.16-1.83-1.81c0-0.5,0.01-1,0-1.5c-0.02-0.66-0.02-1.3,0.6-1.75
		c0.09-0.07,0.12-0.27,0.12-0.41c0.01-1.8,0-3.6,0-5.4C525.92,382.29,525.88,382.24,525.85,382.12z"/>
	<g>
		<path class="st0" d="M501.56,385.45c0.29,0.14,0.48,0.22,0.67,0.31c2.64,1.33,5.29,2.65,7.93,3.99c1.19,0.61,2.34,0.6,3.53-0.01
			c2.55-1.31,5.13-2.59,7.69-3.88c0.25-0.12,0.5-0.24,0.86-0.41c0,0.53,0,0.98,0,1.42c0,1.45-0.03,2.9,0.01,4.36
			c0.03,0.77-0.23,1.38-0.72,1.95c-1.5,1.75-3.48,2.68-5.66,3.2c-3.62,0.86-7.17,0.63-10.58-0.95c-1.25-0.58-2.39-1.35-3.17-2.51
			c-0.3-0.46-0.52-1.06-0.54-1.61C501.52,389.41,501.56,387.5,501.56,385.45z"/>
	</g>
</g>
</svg>
