<?xml version="1.0" encoding="utf-8"?>
<!-- Generator: Adobe Illustrator 26.0.3, SVG Export Plug-In . SVG Version: 6.00 Build 0)  -->
<svg version="1.1" id="Layer_1" xmlns="http://www.w3.org/2000/svg" xmlns:xlink="http://www.w3.org/1999/xlink" x="0px" y="0px"
	 viewBox="0 0 1024 768" style="enable-background:new 0 0 1024 768;" xml:space="preserve">
<style type="text/css">
	.st0{fill:#EF0000;}
</style>
<path d="M521.45,369.3c0.38,0.17,0.52,0.47,0.51,0.88c-0.01,0.6,0,1.21,0,1.81c0,0.67-0.22,0.89-0.89,0.89c-1.48,0-2.97,0-4.45,0
	c-0.1,0-0.21,0-0.37,0c0.19,0.3,0.39,0.53,0.5,0.79c0.29,0.68,0.55,1.37,0.8,2.07c0.07,0.19,0.13,0.27,0.34,0.26
	c1.09-0.01,2.18-0.01,3.27,0c0.62,0,0.84,0.23,0.84,0.84c0,0.63,0,1.27,0,1.9c0,0.6-0.24,0.83-0.85,0.84c-1.07,0-2.14,0-3.21,0
	c-0.19,0-0.27,0.05-0.31,0.25c-0.35,1.89-1.22,3.5-2.68,4.76c-1.32,1.14-2.86,1.81-4.55,2.17c-0.46,0.1-0.93,0.17-1.43,0.27
	c0.1,0.11,0.18,0.21,0.26,0.3c3.33,3.61,6.45,7.4,9.57,11.19c0.2,0.24,0.3,0.48,0.15,0.79c-0.15,0.31-0.4,0.41-0.72,0.41
	c-1.35-0.01-2.69-0.01-4.04,0c-0.31,0-0.52-0.13-0.71-0.36c-1.93-2.28-3.85-4.57-5.81-6.82c-1.5-1.72-3.04-3.41-4.59-5.1
	c-0.32-0.35-0.49-0.7-0.47-1.19c0.03-0.73,0.01-1.46,0.01-2.2c0-0.57,0.27-0.83,0.84-0.84c1.23-0.02,2.46,0,3.68-0.08
	c1.39-0.09,2.71-0.44,3.86-1.29c0.7-0.52,1.2-1.2,1.46-2.04c0.02-0.06,0.03-0.13,0.05-0.22c-0.14,0-0.26,0-0.37,0
	c-2.86,0-5.72,0-8.58,0c-0.71,0-0.93-0.21-0.93-0.91c0-0.61,0-1.23,0-1.84c0-0.59,0.24-0.82,0.83-0.82c2.78,0,5.56,0,8.34,0
	c0.12,0,0.24,0,0.42,0c-0.08-0.14-0.13-0.25-0.19-0.35c-0.49-0.76-1.2-1.22-2.02-1.54c-1.19-0.46-2.44-0.55-3.7-0.55
	c-0.91,0-1.82,0-2.73,0c-0.73,0-0.95-0.23-0.95-0.96c0-0.8,0.01-1.6-0.01-2.4c-0.01-0.41,0.12-0.71,0.49-0.89
	C509.22,369.3,515.34,369.3,521.45,369.3z"/>
<g>
	<path class="st0" d="M521.03,379.65h-18.06c-0.53,0-0.97-0.43-0.97-0.97v-2.06c0-0.53,0.43-0.97,0.97-0.97h18.06
		c0.53,0,0.97,0.43,0.97,0.97v2.06C522,379.21,521.57,379.65,521.03,379.65z"/>
</g>
</svg>
