<?xml version="1.0" encoding="utf-8"?>
<!-- Generator: Adobe Illustrator 26.0.3, SVG Export Plug-In . SVG Version: 6.00 Build 0)  -->
<svg version="1.1" id="Layer_1" xmlns="http://www.w3.org/2000/svg" xmlns:xlink="http://www.w3.org/1999/xlink" x="0px" y="0px"
	 viewBox="0 0 830 996" style="enable-background:new 0 0 830 996;" xml:space="preserve">
<style type="text/css">
	.st0{fill:#E6E6E8;stroke:#E2E2E2;stroke-miterlimit:10;}
	.st1{fill:url(#SVGID_1_);}
	.st2{fill:none;stroke:#FFFFFF;stroke-width:2;stroke-miterlimit:10;}
	.st3{fill:url(#SVGID_00000005229477863868876560000003357225614028128946_);}
	.st4{fill:#FFFFFF;}
	.st5{fill:none;stroke:#1B1464;stroke-miterlimit:10;}
	.st6{fill:none;stroke:#6C6C6D;stroke-width:2;stroke-miterlimit:10;}
	.st7{fill:url(#SVGID_00000126316174185645087120000016397600714424505275_);}
	.st8{fill:#0096FF;}
	.st9{fill:#848484;}
	.st10{fill:#E3E3E5;}
	.st11{fill:#B3B3B3;}
	.st12{fill:#B7B31A;}
	.st13{fill:#A0A0A0;}
	.st14{fill:#0D1039;}
	.st15{fill:#1A1F71;}
	.st16{fill:none;stroke:#000000;stroke-miterlimit:10;}
	.st17{fill:#FFFFFF;stroke:#000000;stroke-miterlimit:10;}
	.st18{fill:none;stroke:#000000;stroke-width:40;stroke-miterlimit:10;}
	.st19{fill:none;stroke:#000000;stroke-width:35;stroke-miterlimit:10;}
	.st20{fill:#B7B7B7;}
	.st21{fill:#ACD6F9;}
	.st22{fill:#2D99E2;}
	.st23{fill:#FFFFFF;stroke:#B7B7B7;stroke-miterlimit:10;}
	.st24{fill:#EF0000;}
	.st25{fill:none;stroke:#000000;stroke-width:2;stroke-miterlimit:10;}
	.st26{fill:#758DA0;}
	.st27{fill:url(#SVGID_00000065038592157164548760000002258955098726775985_);}
</style>
<g>
	<path d="M629.92,281.85c23.45,0,42.52,19.07,42.52,42.52V609c0,23.45-19.07,42.52-42.52,42.52H183.31
		c-23.45,0-42.52-19.07-42.52-42.52V324.37c0-23.45,19.07-42.52,42.52-42.52H629.92 M629.92,246.85H183.31
		c-42.81,0-77.52,34.71-77.52,77.52V609c0,42.81,34.71,77.52,77.52,77.52h446.61c42.81,0,77.52-34.71,77.52-77.52V324.37
		C707.44,281.56,672.73,246.85,629.92,246.85L629.92,246.85z"/>
</g>
<polyline class="st19" points="140.5,281.56 406.61,444.53 677.9,281.56 "/>
</svg>
