<?xml version="1.0" encoding="utf-8"?>
<!-- Generator: Adobe Illustrator 26.0.3, SVG Export Plug-In . SVG Version: 6.00 Build 0)  -->
<svg version="1.1" id="Layer_1" xmlns="http://www.w3.org/2000/svg" xmlns:xlink="http://www.w3.org/1999/xlink" x="0px" y="0px"
	 viewBox="0 0 830 996" style="enable-background:new 0 0 830 996;" xml:space="preserve">
<style type="text/css">
	.st0{fill:#E6E6E8;stroke:#E2E2E2;stroke-miterlimit:10;}
	.st1{fill:url(#SVGID_1_);}
	.st2{fill:none;stroke:#FFFFFF;stroke-width:2;stroke-miterlimit:10;}
	.st3{fill:url(#SVGID_00000102527938713961365330000000750884576549403027_);}
	.st4{fill:#FFFFFF;}
	.st5{fill:none;stroke:#1B1464;stroke-miterlimit:10;}
	.st6{fill:none;stroke:#6C6C6D;stroke-width:2;stroke-miterlimit:10;}
	.st7{fill:url(#SVGID_00000116198171142871556660000002433574926848020134_);}
	.st8{fill:#0096FF;}
	.st9{fill:#848484;}
	.st10{fill:#E3E3E5;}
	.st11{fill:#B3B3B3;}
	.st12{fill:#B7B31A;}
	.st13{fill:#A0A0A0;}
	.st14{fill:#0D1039;}
	.st15{fill:#1A1F71;}
	.st16{fill:none;stroke:#000000;stroke-miterlimit:10;}
	.st17{fill:#FFFFFF;stroke:#000000;stroke-miterlimit:10;}
	.st18{fill:none;stroke:#000000;stroke-width:40;stroke-miterlimit:10;}
	.st19{fill:none;stroke:#000000;stroke-width:35;stroke-miterlimit:10;}
	.st20{fill:#B7B7B7;}
	.st21{fill:#ACD6F9;}
	.st22{fill:#2D99E2;}
	.st23{fill:#FFFFFF;stroke:#B7B7B7;stroke-miterlimit:10;}
	.st24{fill:#EF0000;}
	.st25{fill:none;stroke:#000000;stroke-width:2;stroke-miterlimit:10;}
	.st26{fill:#758DA0;}
	.st27{fill:url(#SVGID_00000115474725462004464000000000030996564440918402_);}
</style>
<g>
	<path d="M389.74,873.99c-91.66-0.01-183.39-2.09-274.97,0.68c-66.07,2-82.49-27.55-71.6-87.71
		c15.7-86.74,53.99-161.06,135.22-196.54c146.51-63.99,298.33-63.97,442.73,5.51c41.48,19.96,77.05,65.93,99.9,108.3
		c66.13,122.63,35.9,169.61-100.64,169.75C543.5,874.07,466.62,874,389.74,873.99z M81.15,830c212.74,0,420.2,0,627.84,0
		c-6.23-157.9-113.43-253.62-261.03-242.59c-35.07,2.62-70.67,2.51-105.75-0.08C196.02,576.53,90.98,670.73,81.15,830z"/>
	<path d="M394.18,120.83c111.84-0.56,203.66,89.4,205.15,200.99c1.46,109.49-90.94,202.93-202.07,204.36
		C285.94,527.6,193.65,436.65,193,324.87C192.34,211.96,281.63,121.39,394.18,120.83z M394.64,157
		c-93.81,0.87-168.99,78.77-165.82,171.82c3.07,90.18,77.65,161.49,167.93,160.54c94.46-0.99,170.25-78.96,166.64-171.42
		C559.9,228.4,484.16,156.17,394.64,157z"/>
</g>
</svg>
